<svg width="29" height="35" viewBox="0 0 29 35" fill="none" xmlns="http://www.w3.org/2000/svg">
<path d="M14.3304 0L0 8.85965L4.61344 11.6497L14.4336 5.35088L24.7602 11.3442L29 8.85965L14.3304 0Z" fill="#F69052"/>
<path d="M14.4336 17.6316L5.5117 12.193V23.1579L14.4336 28.6842V17.6316Z" fill="#F69052"/>
<path d="M5.5117 12.193L14.4336 17.6316L23.9114 11.8416L14.4336 6.57895L5.5117 12.193Z" fill="#2B93D1"/>
<path d="M29 8.85965L24.7602 11.3442L24.848 23.5024L14.4336 29.5614V35L29 26.3158V8.85965Z" fill="#2B93D1"/>
<path d="M14.4336 28.6842L23.9123 23.0702V11.8421L23.9114 11.8416L14.4336 17.6316V28.6842Z" fill="#243268"/>
<path d="M4.61344 11.6497L0 8.85965V26.3158L14.4336 35V29.5614L4.61812 23.5024L4.61344 11.6497Z" fill="#243268"/>
</svg>
