<svg width="560" height="152" viewBox="0 0 560 152" fill="none" xmlns="http://www.w3.org/2000/svg">
<rect x="0.5" y="0.5" width="559" height="151" rx="7.5" stroke="#CBD5E0"/>
<g clip-path="url(#clip0_563_900)">
<rect width="500" height="40" transform="translate(30 16)" fill="#243268"/>
<path d="M54.8849 41V30.8182H61.7457V32.593H57.0376V35.0192H61.3928V36.794H57.0376V39.2251H61.7656V41H54.8849ZM70.5368 33.3636L67.867 41H65.4806L62.8109 33.3636H65.0481L66.6341 38.8274H66.7136L68.2946 33.3636H70.5368ZM74.8546 41.1491C74.0691 41.1491 73.3929 40.9901 72.8262 40.6719C72.2627 40.3504 71.8285 39.8963 71.5236 39.3097C71.2187 38.7197 71.0662 38.022 71.0662 37.2166C71.0662 36.4311 71.2187 35.7417 71.5236 35.1484C71.8285 34.5552 72.2578 34.0928 72.8113 33.7614C73.3681 33.4299 74.021 33.2642 74.7701 33.2642C75.2739 33.2642 75.7428 33.3454 76.177 33.5078C76.6145 33.6669 76.9957 33.9072 77.3205 34.2287C77.6486 34.5502 77.9038 34.9545 78.0861 35.4418C78.2684 35.9257 78.3596 36.4924 78.3596 37.142V37.7237H71.9114V36.4112H76.3659C76.3659 36.1063 76.2997 35.8362 76.1671 35.6009C76.0345 35.3655 75.8506 35.1816 75.6152 35.049C75.3832 34.9131 75.1131 34.8452 74.8049 34.8452C74.4834 34.8452 74.1983 34.9197 73.9498 35.0689C73.7045 35.2147 73.5123 35.4119 73.373 35.6605C73.2338 35.9058 73.1626 36.1792 73.1593 36.4808V37.7287C73.1593 38.1065 73.2289 38.433 73.3681 38.7081C73.5106 38.9832 73.7111 39.1953 73.9696 39.3445C74.2282 39.4936 74.5347 39.5682 74.8894 39.5682C75.1247 39.5682 75.3401 39.535 75.5357 39.4688C75.7312 39.4025 75.8986 39.303 76.0378 39.1705C76.177 39.0379 76.2831 38.8755 76.356 38.6832L78.3148 38.8125C78.2154 39.2831 78.0115 39.6941 77.7033 40.0455C77.3984 40.3935 77.004 40.6652 76.5201 40.8608C76.0395 41.053 75.4843 41.1491 74.8546 41.1491ZM81.8596 36.5852V41H79.7417V33.3636H81.7601V34.7109H81.8496C82.0186 34.2668 82.302 33.9155 82.6998 33.657C83.0975 33.3951 83.5797 33.2642 84.1465 33.2642C84.6768 33.2642 85.1391 33.3802 85.5336 33.6122C85.928 33.8442 86.2346 34.1757 86.4533 34.6065C86.6721 35.0341 86.7814 35.5445 86.7814 36.1378V41H84.6635V36.5156C84.6668 36.0483 84.5475 35.6837 84.3056 35.4219C84.0636 35.1567 83.7305 35.0241 83.3063 35.0241C83.0212 35.0241 82.7694 35.0855 82.5506 35.2081C82.3352 35.3307 82.1661 35.5097 82.0435 35.745C81.9242 35.977 81.8629 36.2571 81.8596 36.5852ZM92.5124 33.3636V34.9545H87.9137V33.3636H92.5124ZM88.9577 31.5341H91.0756V38.6534C91.0756 38.849 91.1055 39.0014 91.1651 39.1108C91.2248 39.2169 91.3076 39.2914 91.4137 39.3345C91.5231 39.3776 91.649 39.3991 91.7915 39.3991C91.891 39.3991 91.9904 39.3909 92.0898 39.3743C92.1893 39.3544 92.2655 39.3395 92.3185 39.3295L92.6516 40.9055C92.5456 40.9387 92.3964 40.9768 92.2042 41.0199C92.012 41.0663 91.7783 41.0945 91.5032 41.1044C90.9928 41.1243 90.5453 41.0563 90.1609 40.9006C89.7797 40.7448 89.4831 40.5028 89.271 40.1747C89.0588 39.8466 88.9544 39.4323 88.9577 38.9318V31.5341ZM96.7843 32.593V30.8182H105.146V32.593H102.029V41H99.9015V32.593H96.7843ZM106.916 43.8636C106.648 43.8636 106.396 43.8421 106.161 43.799C105.929 43.7592 105.736 43.7079 105.584 43.6449L106.061 42.0639C106.31 42.1402 106.534 42.1816 106.732 42.1882C106.935 42.1948 107.109 42.1484 107.254 42.049C107.404 41.9496 107.525 41.7805 107.617 41.5419L107.742 41.2188L105.002 33.3636H107.23L108.811 38.9716H108.89L110.486 33.3636H112.728L109.76 41.8253C109.618 42.2363 109.424 42.5942 109.178 42.8991C108.936 43.2074 108.63 43.4444 108.259 43.6101C107.887 43.7791 107.44 43.8636 106.916 43.8636ZM113.812 43.8636V33.3636H115.9V34.6463H115.994C116.087 34.4408 116.222 34.232 116.397 34.0199C116.576 33.8045 116.808 33.6255 117.093 33.483C117.382 33.3371 117.74 33.2642 118.167 33.2642C118.724 33.2642 119.238 33.41 119.708 33.7017C120.179 33.9901 120.555 34.4259 120.837 35.0092C121.119 35.5893 121.259 36.3168 121.259 37.1918C121.259 38.0436 121.122 38.7628 120.847 39.3494C120.575 39.9328 120.204 40.3752 119.733 40.6768C119.266 40.9751 118.742 41.1243 118.162 41.1243C117.751 41.1243 117.401 41.0563 117.113 40.9205C116.828 40.7846 116.594 40.6139 116.412 40.4084C116.23 40.1996 116.091 39.9891 115.994 39.777H115.93V43.8636H113.812ZM115.885 37.1818C115.885 37.6359 115.948 38.032 116.074 38.37C116.2 38.7081 116.382 38.9716 116.621 39.1605C116.86 39.3461 117.15 39.4389 117.491 39.4389C117.836 39.4389 118.127 39.3445 118.366 39.1555C118.605 38.9633 118.785 38.6982 118.908 38.3601C119.034 38.0187 119.097 37.6259 119.097 37.1818C119.097 36.741 119.035 36.3532 118.913 36.0185C118.79 35.6837 118.61 35.4219 118.371 35.233C118.132 35.044 117.839 34.9496 117.491 34.9496C117.146 34.9496 116.855 35.0407 116.616 35.223C116.381 35.4053 116.2 35.6638 116.074 35.9986C115.948 36.3333 115.885 36.7277 115.885 37.1818ZM126.151 41.1491C125.366 41.1491 124.69 40.9901 124.123 40.6719C123.56 40.3504 123.125 39.8963 122.82 39.3097C122.516 38.7197 122.363 38.022 122.363 37.2166C122.363 36.4311 122.516 35.7417 122.82 35.1484C123.125 34.5552 123.555 34.0928 124.108 33.7614C124.665 33.4299 125.318 33.2642 126.067 33.2642C126.571 33.2642 127.04 33.3454 127.474 33.5078C127.911 33.6669 128.293 33.9072 128.617 34.2287C128.945 34.5502 129.201 34.9545 129.383 35.4418C129.565 35.9257 129.656 36.4924 129.656 37.142V37.7237H123.208V36.4112H127.663C127.663 36.1063 127.597 35.8362 127.464 35.6009C127.331 35.3655 127.147 35.1816 126.912 35.049C126.68 34.9131 126.41 34.8452 126.102 34.8452C125.78 34.8452 125.495 34.9197 125.247 35.0689C125.001 35.2147 124.809 35.4119 124.67 35.6605C124.531 35.9058 124.459 36.1792 124.456 36.4808V37.7287C124.456 38.1065 124.526 38.433 124.665 38.7081C124.807 38.9832 125.008 39.1953 125.267 39.3445C125.525 39.4936 125.832 39.5682 126.186 39.5682C126.422 39.5682 126.637 39.535 126.833 39.4688C127.028 39.4025 127.195 39.303 127.335 39.1705C127.474 39.0379 127.58 38.8755 127.653 38.6832L129.612 38.8125C129.512 39.2831 129.308 39.6941 129 40.0455C128.695 40.3935 128.301 40.6652 127.817 40.8608C127.336 41.053 126.781 41.1491 126.151 41.1491Z" fill="white"/>
<mask id="path-3-inside-1_563_900" fill="white">
<path d="M180 16H276.667V56H180V16Z"/>
</mask>
<path d="M181 56V16H179V56H181Z" fill="#CBD5E0" mask="url(#path-3-inside-1_563_900)"/>
<path d="M222.242 33.7464C222.202 33.3454 222.031 33.0339 221.73 32.8118C221.428 32.5897 221.019 32.4787 220.502 32.4787C220.15 32.4787 219.854 32.5284 219.612 32.6278C219.37 32.724 219.184 32.8582 219.055 33.0305C218.929 33.2029 218.866 33.3984 218.866 33.6172C218.859 33.7995 218.897 33.9586 218.98 34.0945C219.067 34.2304 219.184 34.348 219.333 34.4474C219.482 34.5436 219.655 34.6281 219.85 34.701C220.046 34.7706 220.255 34.8303 220.477 34.88L221.392 35.0987C221.836 35.1982 222.243 35.3307 222.615 35.4964C222.986 35.6622 223.307 35.866 223.579 36.108C223.851 36.3499 224.061 36.6349 224.21 36.9631C224.363 37.2912 224.441 37.6674 224.444 38.0916C224.441 38.7147 224.282 39.255 223.967 39.7124C223.655 40.1664 223.205 40.5194 222.615 40.7713C222.028 41.0199 221.32 41.1442 220.492 41.1442C219.67 41.1442 218.954 41.0182 218.344 40.7663C217.737 40.5144 217.263 40.1416 216.922 39.6477C216.584 39.1506 216.407 38.5357 216.39 37.8033H218.473C218.496 38.1446 218.594 38.4297 218.767 38.6584C218.942 38.8838 219.176 39.0545 219.468 39.1705C219.763 39.2831 220.096 39.3395 220.467 39.3395C220.831 39.3395 221.148 39.2865 221.416 39.1804C221.688 39.0743 221.899 38.9268 222.048 38.7379C222.197 38.549 222.272 38.3319 222.272 38.0866C222.272 37.858 222.204 37.6657 222.068 37.5099C221.935 37.3542 221.74 37.2216 221.481 37.1122C221.226 37.0028 220.913 36.9034 220.541 36.8139L219.433 36.5355C218.574 36.3267 217.897 36.0002 217.399 35.5561C216.902 35.112 216.655 34.5137 216.659 33.7614C216.655 33.1449 216.819 32.6063 217.151 32.1456C217.486 31.6849 217.945 31.3253 218.528 31.0668C219.111 30.8082 219.774 30.679 220.517 30.679C221.272 30.679 221.932 30.8082 222.495 31.0668C223.062 31.3253 223.503 31.6849 223.818 32.1456C224.133 32.6063 224.295 33.1399 224.305 33.7464H222.242ZM229.303 41.1491C228.52 41.1491 227.848 40.9834 227.284 40.652C226.724 40.3172 226.293 39.8532 225.992 39.2599C225.693 38.6667 225.544 37.9839 225.544 37.2116C225.544 36.4295 225.695 35.7434 225.996 35.1534C226.301 34.5601 226.734 34.0978 227.294 33.7663C227.854 33.4316 228.52 33.2642 229.293 33.2642C229.959 33.2642 230.542 33.3852 231.043 33.6271C231.543 33.8691 231.939 34.2088 232.231 34.6463C232.523 35.0838 232.683 35.5975 232.713 36.1875H230.715C230.658 35.8063 230.509 35.4998 230.267 35.2678C230.028 35.0324 229.715 34.9148 229.327 34.9148C228.999 34.9148 228.713 35.0043 228.467 35.1832C228.225 35.3589 228.036 35.6158 227.901 35.9538C227.765 36.2919 227.697 36.7012 227.697 37.1818C227.697 37.669 227.763 38.0833 227.896 38.4247C228.032 38.7661 228.222 39.0263 228.467 39.2053C228.713 39.3842 228.999 39.4737 229.327 39.4737C229.569 39.4737 229.786 39.424 229.979 39.3246C230.174 39.2251 230.335 39.081 230.461 38.892C230.59 38.6998 230.675 38.4695 230.715 38.201H232.713C232.68 38.7843 232.521 39.2981 232.236 39.7422C231.954 40.183 231.565 40.5277 231.068 40.7763C230.57 41.0249 229.982 41.1491 229.303 41.1491ZM234.069 41V33.3636H236.187V41H234.069ZM235.133 32.3793C234.818 32.3793 234.548 32.2749 234.323 32.0661C234.101 31.8539 233.99 31.6004 233.99 31.3054C233.99 31.0137 234.101 30.7635 234.323 30.5547C234.548 30.3426 234.818 30.2365 235.133 30.2365C235.448 30.2365 235.716 30.3426 235.938 30.5547C236.164 30.7635 236.276 31.0137 236.276 31.3054C236.276 31.6004 236.164 31.8539 235.938 32.0661C235.716 32.2749 235.448 32.3793 235.133 32.3793ZM241.364 41.1491C240.578 41.1491 239.902 40.9901 239.335 40.6719C238.772 40.3504 238.338 39.8963 238.033 39.3097C237.728 38.7197 237.575 38.022 237.575 37.2166C237.575 36.4311 237.728 35.7417 238.033 35.1484C238.338 34.5552 238.767 34.0928 239.32 33.7614C239.877 33.4299 240.53 33.2642 241.279 33.2642C241.783 33.2642 242.252 33.3454 242.686 33.5078C243.124 33.6669 243.505 33.9072 243.83 34.2287C244.158 34.5502 244.413 34.9545 244.595 35.4418C244.778 35.9257 244.869 36.4924 244.869 37.142V37.7237H238.42V36.4112H242.875C242.875 36.1063 242.809 35.8362 242.676 35.6009C242.544 35.3655 242.36 35.1816 242.124 35.049C241.892 34.9131 241.622 34.8452 241.314 34.8452C240.992 34.8452 240.707 34.9197 240.459 35.0689C240.214 35.2147 240.021 35.4119 239.882 35.6605C239.743 35.9058 239.672 36.1792 239.668 36.4808V37.7287C239.668 38.1065 239.738 38.433 239.877 38.7081C240.02 38.9832 240.22 39.1953 240.479 39.3445C240.737 39.4936 241.044 39.5682 241.398 39.5682C241.634 39.5682 241.849 39.535 242.045 39.4688C242.24 39.4025 242.408 39.303 242.547 39.1705C242.686 39.0379 242.792 38.8755 242.865 38.6832L244.824 38.8125C244.724 39.2831 244.521 39.6941 244.212 40.0455C243.907 40.3935 243.513 40.6652 243.029 40.8608C242.549 41.053 241.993 41.1491 241.364 41.1491ZM248.369 36.5852V41H246.251V33.3636H248.269V34.7109H248.359C248.528 34.2668 248.811 33.9155 249.209 33.657C249.607 33.3951 250.089 33.2642 250.656 33.2642C251.186 33.2642 251.648 33.3802 252.043 33.6122C252.437 33.8442 252.744 34.1757 252.962 34.6065C253.181 35.0341 253.291 35.5445 253.291 36.1378V41H251.173V36.5156C251.176 36.0483 251.057 35.6837 250.815 35.4219C250.573 35.1567 250.24 35.0241 249.815 35.0241C249.53 35.0241 249.278 35.0855 249.06 35.2081C248.844 35.3307 248.675 35.5097 248.553 35.745C248.433 35.977 248.372 36.2571 248.369 36.5852ZM258.41 41.1491C257.628 41.1491 256.955 40.9834 256.392 40.652C255.831 40.3172 255.401 39.8532 255.099 39.2599C254.801 38.6667 254.651 37.9839 254.651 37.2116C254.651 36.4295 254.802 35.7434 255.104 35.1534C255.409 34.5601 255.841 34.0978 256.401 33.7663C256.962 33.4316 257.628 33.2642 258.4 33.2642C259.066 33.2642 259.65 33.3852 260.15 33.6271C260.651 33.8691 261.047 34.2088 261.338 34.6463C261.63 35.0838 261.791 35.5975 261.821 36.1875H259.822C259.766 35.8063 259.616 35.4998 259.375 35.2678C259.136 35.0324 258.823 34.9148 258.435 34.9148C258.107 34.9148 257.82 35.0043 257.575 35.1832C257.333 35.3589 257.144 35.6158 257.008 35.9538C256.872 36.2919 256.804 36.7012 256.804 37.1818C256.804 37.669 256.87 38.0833 257.003 38.4247C257.139 38.7661 257.33 39.0263 257.575 39.2053C257.82 39.3842 258.107 39.4737 258.435 39.4737C258.677 39.4737 258.894 39.424 259.086 39.3246C259.282 39.2251 259.442 39.081 259.568 38.892C259.698 38.6998 259.782 38.4695 259.822 38.201H261.821C261.787 38.7843 261.628 39.2981 261.343 39.7422C261.062 40.183 260.672 40.5277 260.175 40.7763C259.678 41.0249 259.089 41.1491 258.41 41.1491ZM266.657 41.1491C265.871 41.1491 265.195 40.9901 264.628 40.6719C264.065 40.3504 263.631 39.8963 263.326 39.3097C263.021 38.7197 262.868 38.022 262.868 37.2166C262.868 36.4311 263.021 35.7417 263.326 35.1484C263.631 34.5552 264.06 34.0928 264.613 33.7614C265.17 33.4299 265.823 33.2642 266.572 33.2642C267.076 33.2642 267.545 33.3454 267.979 33.5078C268.417 33.6669 268.798 33.9072 269.123 34.2287C269.451 34.5502 269.706 34.9545 269.888 35.4418C270.07 35.9257 270.162 36.4924 270.162 37.142V37.7237H263.713V36.4112H268.168C268.168 36.1063 268.102 35.8362 267.969 35.6009C267.837 35.3655 267.653 35.1816 267.417 35.049C267.185 34.9131 266.915 34.8452 266.607 34.8452C266.285 34.8452 266 34.9197 265.752 35.0689C265.507 35.2147 265.314 35.4119 265.175 35.6605C265.036 35.9058 264.965 36.1792 264.961 36.4808V37.7287C264.961 38.1065 265.031 38.433 265.17 38.7081C265.313 38.9832 265.513 39.1953 265.772 39.3445C266.03 39.4936 266.337 39.5682 266.691 39.5682C266.927 39.5682 267.142 39.535 267.338 39.4688C267.533 39.4025 267.701 39.303 267.84 39.1705C267.979 39.0379 268.085 38.8755 268.158 38.6832L270.117 38.8125C270.017 39.2831 269.814 39.6941 269.505 40.0455C269.2 40.3935 268.806 40.6652 268.322 40.8608C267.842 41.053 267.286 41.1491 266.657 41.1491Z" fill="white"/>
<mask id="path-6-inside-2_563_900" fill="white">
<path d="M306.667 16H403.333V56H306.667V16Z"/>
</mask>
<path d="M307.667 56V16H305.667V56H307.667Z" fill="#CBD5E0" mask="url(#path-6-inside-2_563_900)"/>
<path d="M329.385 41V30.8182H336.246V32.593H331.538V35.0192H335.893V36.794H331.538V39.2251H336.266V41H329.385ZM340.035 36.5852V41H337.917V33.3636H339.936V34.7109H340.025C340.194 34.2668 340.478 33.9155 340.875 33.657C341.273 33.3951 341.755 33.2642 342.322 33.2642C342.853 33.2642 343.315 33.3802 343.709 33.6122C344.104 33.8442 344.41 34.1757 344.629 34.6065C344.848 35.0341 344.957 35.5445 344.957 36.1378V41H342.839V36.5156C342.843 36.0483 342.723 35.6837 342.481 35.4219C342.239 35.1567 341.906 35.0241 341.482 35.0241C341.197 35.0241 340.945 35.0855 340.726 35.2081C340.511 35.3307 340.342 35.5097 340.219 35.745C340.1 35.977 340.039 36.2571 340.035 36.5852ZM350.067 44.0227C349.381 44.0227 348.792 43.9283 348.302 43.7393C347.815 43.5537 347.427 43.3002 347.138 42.9787C346.85 42.6572 346.663 42.2959 346.577 41.8949L348.535 41.6314C348.595 41.7839 348.69 41.9264 348.819 42.0589C348.948 42.1915 349.119 42.2976 349.331 42.3771C349.546 42.46 349.808 42.5014 350.116 42.5014C350.577 42.5014 350.957 42.3887 351.255 42.1634C351.557 41.9413 351.707 41.5684 351.707 41.0447V39.6477H351.618C351.525 39.8598 351.386 40.0604 351.2 40.2493C351.015 40.4382 350.776 40.5923 350.484 40.7116C350.193 40.831 349.845 40.8906 349.44 40.8906C348.867 40.8906 348.345 40.758 347.874 40.4929C347.407 40.2244 347.034 39.8151 346.756 39.2649C346.481 38.7114 346.343 38.0121 346.343 37.1669C346.343 36.3018 346.484 35.5793 346.766 34.9993C347.047 34.4193 347.422 33.9851 347.889 33.6967C348.36 33.4084 348.875 33.2642 349.435 33.2642C349.863 33.2642 350.221 33.3371 350.509 33.483C350.798 33.6255 351.03 33.8045 351.205 34.0199C351.384 34.232 351.522 34.4408 351.618 34.6463H351.697V33.3636H353.8V41.0746C353.8 41.7242 353.641 42.2678 353.323 42.7053C353.005 43.1428 352.564 43.4709 352.001 43.6896C351.441 43.9117 350.796 44.0227 350.067 44.0227ZM350.111 39.2997C350.453 39.2997 350.741 39.2152 350.977 39.0462C351.215 38.8738 351.397 38.6286 351.523 38.3104C351.653 37.9889 351.717 37.6044 351.717 37.157C351.717 36.7095 351.654 36.3217 351.528 35.9936C351.402 35.6622 351.22 35.4053 350.981 35.223C350.743 35.0407 350.453 34.9496 350.111 34.9496C349.763 34.9496 349.47 35.044 349.231 35.233C348.993 35.4186 348.812 35.6771 348.69 36.0085C348.567 36.34 348.506 36.7228 348.506 37.157C348.506 37.5978 348.567 37.9789 348.69 38.3004C348.816 38.6186 348.996 38.8655 349.231 39.0412C349.47 39.2135 349.763 39.2997 350.111 39.2997ZM355.486 41V33.3636H357.604V41H355.486ZM356.55 32.3793C356.235 32.3793 355.965 32.2749 355.739 32.0661C355.517 31.8539 355.406 31.6004 355.406 31.3054C355.406 31.0137 355.517 30.7635 355.739 30.5547C355.965 30.3426 356.235 30.2365 356.55 30.2365C356.865 30.2365 357.133 30.3426 357.355 30.5547C357.58 30.7635 357.693 31.0137 357.693 31.3054C357.693 31.6004 357.58 31.8539 357.355 32.0661C357.133 32.2749 356.865 32.3793 356.55 32.3793ZM361.418 36.5852V41H359.3V33.3636H361.319V34.7109H361.408C361.577 34.2668 361.861 33.9155 362.258 33.657C362.656 33.3951 363.138 33.2642 363.705 33.2642C364.235 33.2642 364.698 33.3802 365.092 33.6122C365.487 33.8442 365.793 34.1757 366.012 34.6065C366.231 35.0341 366.34 35.5445 366.34 36.1378V41H364.222V36.5156C364.225 36.0483 364.106 35.6837 363.864 35.4219C363.622 35.1567 363.289 35.0241 362.865 35.0241C362.58 35.0241 362.328 35.0855 362.109 35.2081C361.894 35.3307 361.725 35.5097 361.602 35.745C361.483 35.977 361.421 36.2571 361.418 36.5852ZM371.489 41.1491C370.704 41.1491 370.028 40.9901 369.461 40.6719C368.897 40.3504 368.463 39.8963 368.158 39.3097C367.853 38.7197 367.701 38.022 367.701 37.2166C367.701 36.4311 367.853 35.7417 368.158 35.1484C368.463 34.5552 368.892 34.0928 369.446 33.7614C370.003 33.4299 370.656 33.2642 371.405 33.2642C371.909 33.2642 372.378 33.3454 372.812 33.5078C373.249 33.6669 373.63 33.9072 373.955 34.2287C374.283 34.5502 374.539 34.9545 374.721 35.4418C374.903 35.9257 374.994 36.4924 374.994 37.142V37.7237H368.546V36.4112H373.001C373.001 36.1063 372.934 35.8362 372.802 35.6009C372.669 35.3655 372.485 35.1816 372.25 35.049C372.018 34.9131 371.748 34.8452 371.44 34.8452C371.118 34.8452 370.833 34.9197 370.584 35.0689C370.339 35.2147 370.147 35.4119 370.008 35.6605C369.869 35.9058 369.797 36.1792 369.794 36.4808V37.7287C369.794 38.1065 369.864 38.433 370.003 38.7081C370.145 38.9832 370.346 39.1953 370.604 39.3445C370.863 39.4936 371.169 39.5682 371.524 39.5682C371.759 39.5682 371.975 39.535 372.17 39.4688C372.366 39.4025 372.533 39.303 372.673 39.1705C372.812 39.0379 372.918 38.8755 372.991 38.6832L374.95 38.8125C374.85 39.2831 374.646 39.6941 374.338 40.0455C374.033 40.3935 373.639 40.6652 373.155 40.8608C372.674 41.053 372.119 41.1491 371.489 41.1491ZM379.856 41.1491C379.071 41.1491 378.395 40.9901 377.828 40.6719C377.265 40.3504 376.83 39.8963 376.526 39.3097C376.221 38.7197 376.068 38.022 376.068 37.2166C376.068 36.4311 376.221 35.7417 376.526 35.1484C376.83 34.5552 377.26 34.0928 377.813 33.7614C378.37 33.4299 379.023 33.2642 379.772 33.2642C380.276 33.2642 380.745 33.3454 381.179 33.5078C381.616 33.6669 381.998 33.9072 382.322 34.2287C382.651 34.5502 382.906 34.9545 383.088 35.4418C383.27 35.9257 383.361 36.4924 383.361 37.142V37.7237H376.913V36.4112H381.368C381.368 36.1063 381.302 35.8362 381.169 35.6009C381.036 35.3655 380.852 35.1816 380.617 35.049C380.385 34.9131 380.115 34.8452 379.807 34.8452C379.485 34.8452 379.2 34.9197 378.952 35.0689C378.706 35.2147 378.514 35.4119 378.375 35.6605C378.236 35.9058 378.164 36.1792 378.161 36.4808V37.7287C378.161 38.1065 378.231 38.433 378.37 38.7081C378.512 38.9832 378.713 39.1953 378.972 39.3445C379.23 39.4936 379.537 39.5682 379.891 39.5682C380.127 39.5682 380.342 39.535 380.538 39.4688C380.733 39.4025 380.901 39.303 381.04 39.1705C381.179 39.0379 381.285 38.8755 381.358 38.6832L383.317 38.8125C383.217 39.2831 383.013 39.6941 382.705 40.0455C382.4 40.3935 382.006 40.6652 381.522 40.8608C381.041 41.053 380.486 41.1491 379.856 41.1491ZM384.744 41V33.3636H386.797V34.696H386.876C387.016 34.2221 387.249 33.8641 387.577 33.6222C387.905 33.3769 388.283 33.2543 388.711 33.2543C388.817 33.2543 388.931 33.2609 389.054 33.2741C389.177 33.2874 389.284 33.3056 389.377 33.3288V35.2081C389.278 35.1783 389.14 35.1518 388.964 35.1286C388.789 35.1054 388.628 35.0938 388.482 35.0938C388.171 35.0938 387.892 35.1617 387.647 35.2976C387.405 35.4302 387.213 35.6158 387.07 35.8544C386.931 36.093 386.861 36.3681 386.861 36.6797V41H384.744ZM390.472 41V33.3636H392.59V41H390.472ZM391.536 32.3793C391.221 32.3793 390.951 32.2749 390.726 32.0661C390.504 31.8539 390.393 31.6004 390.393 31.3054C390.393 31.0137 390.504 30.7635 390.726 30.5547C390.951 30.3426 391.221 30.2365 391.536 30.2365C391.851 30.2365 392.119 30.3426 392.341 30.5547C392.567 30.7635 392.679 31.0137 392.679 31.3054C392.679 31.6004 392.567 31.8539 392.341 32.0661C392.119 32.2749 391.851 32.3793 391.536 32.3793ZM396.404 36.5852V41H394.287V33.3636H396.305V34.7109H396.394C396.564 34.2668 396.847 33.9155 397.245 33.657C397.642 33.3951 398.125 33.2642 398.691 33.2642C399.222 33.2642 399.684 33.3802 400.078 33.6122C400.473 33.8442 400.779 34.1757 400.998 34.6065C401.217 35.0341 401.326 35.5445 401.326 36.1378V41H399.208V36.5156C399.212 36.0483 399.092 35.6837 398.85 35.4219C398.608 35.1567 398.275 35.0241 397.851 35.0241C397.566 35.0241 397.314 35.0855 397.095 35.2081C396.88 35.3307 396.711 35.5097 396.588 35.745C396.469 35.977 396.408 36.2571 396.404 36.5852ZM406.436 44.0227C405.75 44.0227 405.161 43.9283 404.671 43.7393C404.184 43.5537 403.796 43.3002 403.508 42.9787C403.219 42.6572 403.032 42.2959 402.946 41.8949L404.905 41.6314C404.964 41.7839 405.059 41.9264 405.188 42.0589C405.317 42.1915 405.488 42.2976 405.7 42.3771C405.915 42.46 406.177 42.5014 406.486 42.5014C406.946 42.5014 407.326 42.3887 407.624 42.1634C407.926 41.9413 408.076 41.5684 408.076 41.0447V39.6477H407.987C407.894 39.8598 407.755 40.0604 407.569 40.2493C407.384 40.4382 407.145 40.5923 406.853 40.7116C406.562 40.831 406.214 40.8906 405.809 40.8906C405.236 40.8906 404.714 40.758 404.243 40.4929C403.776 40.2244 403.403 39.8151 403.125 39.2649C402.85 38.7114 402.712 38.0121 402.712 37.1669C402.712 36.3018 402.853 35.5793 403.135 34.9993C403.416 34.4193 403.791 33.9851 404.258 33.6967C404.729 33.4084 405.244 33.2642 405.804 33.2642C406.232 33.2642 406.59 33.3371 406.878 33.483C407.167 33.6255 407.399 33.8045 407.574 34.0199C407.753 34.232 407.891 34.4408 407.987 34.6463H408.067V33.3636H410.17V41.0746C410.17 41.7242 410.01 42.2678 409.692 42.7053C409.374 43.1428 408.933 43.4709 408.37 43.6896C407.81 43.9117 407.165 44.0227 406.436 44.0227ZM406.481 39.2997C406.822 39.2997 407.11 39.2152 407.346 39.0462C407.584 38.8738 407.767 38.6286 407.893 38.3104C408.022 37.9889 408.086 37.6044 408.086 37.157C408.086 36.7095 408.023 36.3217 407.897 35.9936C407.772 35.6622 407.589 35.4053 407.351 35.223C407.112 35.0407 406.822 34.9496 406.481 34.9496C406.133 34.9496 405.839 35.044 405.601 35.233C405.362 35.4186 405.181 35.6771 405.059 36.0085C404.936 36.34 404.875 36.7228 404.875 37.157C404.875 37.5978 404.936 37.9789 405.059 38.3004C405.185 38.6186 405.365 38.8655 405.601 39.0412C405.839 39.2135 406.133 39.2997 406.481 39.2997Z" fill="white"/>
<mask id="path-9-inside-3_563_900" fill="white">
<path d="M433.333 16H530V56H433.333V16Z"/>
</mask>
<path d="M434.333 56V16H432.333V56H434.333Z" fill="#CBD5E0" mask="url(#path-9-inside-3_563_900)"/>
<path d="M464.664 32.593V30.8182H473.026V32.593H469.909V41H467.781V32.593H464.664ZM476.706 41.1491C475.934 41.1491 475.266 40.9851 474.703 40.657C474.143 40.3255 473.71 39.8648 473.405 39.2749C473.1 38.6816 472.948 37.9938 472.948 37.2116C472.948 36.4228 473.1 35.7334 473.405 35.1435C473.71 34.5502 474.143 34.0895 474.703 33.7614C475.266 33.4299 475.934 33.2642 476.706 33.2642C477.478 33.2642 478.145 33.4299 478.705 33.7614C479.268 34.0895 479.702 34.5502 480.007 35.1435C480.312 35.7334 480.465 36.4228 480.465 37.2116C480.465 37.9938 480.312 38.6816 480.007 39.2749C479.702 39.8648 479.268 40.3255 478.705 40.657C478.145 40.9851 477.478 41.1491 476.706 41.1491ZM476.716 39.5085C477.067 39.5085 477.361 39.4091 477.596 39.2102C477.831 39.008 478.009 38.733 478.128 38.3849C478.251 38.0369 478.312 37.6409 478.312 37.1967C478.312 36.7526 478.251 36.3565 478.128 36.0085C478.009 35.6605 477.831 35.3854 477.596 35.1832C477.361 34.9811 477.067 34.88 476.716 34.88C476.362 34.88 476.063 34.9811 475.821 35.1832C475.583 35.3854 475.402 35.6605 475.279 36.0085C475.16 36.3565 475.1 36.7526 475.1 37.1967C475.1 37.6409 475.16 38.0369 475.279 38.3849C475.402 38.733 475.583 39.008 475.821 39.2102C476.063 39.4091 476.362 39.5085 476.716 39.5085ZM485.904 33.3636V34.9545H481.305V33.3636H485.904ZM482.349 31.5341H484.467V38.6534C484.467 38.849 484.497 39.0014 484.556 39.1108C484.616 39.2169 484.699 39.2914 484.805 39.3345C484.914 39.3776 485.04 39.3991 485.183 39.3991C485.282 39.3991 485.382 39.3909 485.481 39.3743C485.581 39.3544 485.657 39.3395 485.71 39.3295L486.043 40.9055C485.937 40.9387 485.788 40.9768 485.595 41.0199C485.403 41.0663 485.17 41.0945 484.894 41.1044C484.384 41.1243 483.937 41.0563 483.552 40.9006C483.171 40.7448 482.874 40.5028 482.662 40.1747C482.45 39.8466 482.346 39.4323 482.349 38.9318V31.5341ZM489.461 41.1442C488.974 41.1442 488.539 41.0597 488.158 40.8906C487.777 40.7183 487.476 40.4647 487.253 40.13C487.035 39.7919 486.925 39.371 486.925 38.8672C486.925 38.4429 487.003 38.0866 487.159 37.7983C487.315 37.5099 487.527 37.2779 487.795 37.1023C488.064 36.9266 488.369 36.794 488.71 36.7045C489.055 36.6151 489.416 36.5521 489.794 36.5156C490.238 36.4692 490.596 36.4261 490.868 36.3864C491.14 36.3433 491.337 36.2803 491.459 36.1974C491.582 36.1146 491.643 35.992 491.643 35.8295V35.7997C491.643 35.4848 491.544 35.2412 491.345 35.0689C491.15 34.8965 490.871 34.8104 490.51 34.8104C490.129 34.8104 489.825 34.8949 489.6 35.0639C489.375 35.2296 489.226 35.4384 489.153 35.6903L487.194 35.5312C487.293 35.0672 487.489 34.6662 487.78 34.3281C488.072 33.9867 488.448 33.7249 488.909 33.5426C489.373 33.357 489.91 33.2642 490.52 33.2642C490.944 33.2642 491.35 33.3139 491.738 33.4134C492.129 33.5128 492.475 33.6669 492.777 33.8757C493.082 34.0845 493.322 34.353 493.498 34.6811C493.673 35.0059 493.761 35.3954 493.761 35.8494V41H491.753V39.9411H491.693C491.57 40.1797 491.406 40.3902 491.201 40.5724C490.995 40.7514 490.748 40.8923 490.46 40.995C490.172 41.0945 489.839 41.1442 489.461 41.1442ZM490.067 39.6825C490.379 39.6825 490.654 39.6212 490.893 39.4986C491.131 39.3726 491.319 39.2036 491.454 38.9915C491.59 38.7794 491.658 38.5391 491.658 38.2706V37.4602C491.592 37.5033 491.501 37.5431 491.385 37.5795C491.272 37.6127 491.145 37.6442 491.002 37.674C490.86 37.7005 490.717 37.7254 490.574 37.7486C490.432 37.7685 490.303 37.7867 490.187 37.8033C489.938 37.8397 489.721 37.8977 489.535 37.9773C489.35 38.0568 489.206 38.1645 489.103 38.3004C489 38.433 488.949 38.5987 488.949 38.7976C488.949 39.0859 489.053 39.3063 489.262 39.4588C489.474 39.608 489.743 39.6825 490.067 39.6825ZM497.522 30.8182V41H495.404V30.8182H497.522Z" fill="white"/>
<mask id="path-12-inside-4_563_900" fill="white">
<path d="M30 56H530V96H30V56Z"/>
</mask>
<path d="M30 56H530V96H30V56Z" fill="white"/>
<path d="M530 95H30V97H530V95Z" fill="#CBD5E0" mask="url(#path-12-inside-4_563_900)"/>
<path d="M62.1932 74C62.0838 73.6652 61.9396 73.3653 61.7607 73.1001C61.585 72.8317 61.3745 72.603 61.1293 72.4141C60.8873 72.2251 60.6122 72.081 60.304 71.9815C59.9957 71.8821 59.6577 71.8324 59.2898 71.8324C58.6866 71.8324 58.138 71.9882 57.6442 72.2997C57.1503 72.6113 56.7576 73.0703 56.4659 73.6768C56.1742 74.2834 56.0284 75.0275 56.0284 75.9091C56.0284 76.7907 56.1759 77.5348 56.4709 78.1413C56.7659 78.7479 57.1652 79.2069 57.669 79.5185C58.1728 79.83 58.7396 79.9858 59.3693 79.9858C59.9527 79.9858 60.4664 79.8615 60.9105 79.6129C61.358 79.361 61.706 79.0064 61.9545 78.549C62.2064 78.0883 62.3324 77.5464 62.3324 76.9233L62.7102 77.0028H59.6477V75.9091H63.5256V77.0028C63.5256 77.8414 63.3466 78.5705 62.9886 79.1903C62.634 79.8101 62.1435 80.2907 61.517 80.6321C60.8939 80.9702 60.178 81.1392 59.3693 81.1392C58.4678 81.1392 57.6757 80.9271 56.9929 80.5028C56.3134 80.0786 55.7831 79.4754 55.402 78.6932C55.0241 77.911 54.8352 76.983 54.8352 75.9091C54.8352 75.1037 54.9429 74.3795 55.1584 73.7365C55.3771 73.0902 55.6854 72.54 56.0831 72.0859C56.4808 71.6319 56.9515 71.2839 57.495 71.0419C58.0386 70.8 58.6368 70.679 59.2898 70.679C59.8267 70.679 60.3272 70.7602 60.7912 70.9226C61.2585 71.0817 61.6745 71.3087 62.0391 71.6037C62.407 71.8954 62.7135 72.245 62.9588 72.6527C63.2041 73.0571 63.3731 73.5062 63.4659 74H62.1932ZM70.2907 77.8778V73.3636H71.464V81H70.2907V79.7074H70.2111C70.0321 80.0952 69.7537 80.425 69.3759 80.6967C68.998 80.9652 68.5208 81.0994 67.9441 81.0994C67.4668 81.0994 67.0426 80.995 66.6713 80.7862C66.3001 80.5741 66.0085 80.2559 65.7963 79.8317C65.5842 79.4041 65.4782 78.8655 65.4782 78.2159V73.3636H66.6515V78.1364C66.6515 78.6932 66.8072 79.1373 67.1188 79.4688C67.4337 79.8002 67.8347 79.9659 68.3219 79.9659C68.6136 79.9659 68.9102 79.8913 69.2118 79.7422C69.5167 79.593 69.772 79.3643 69.9775 79.0561C70.1863 78.7479 70.2907 78.3551 70.2907 77.8778ZM76.8146 81.1591C76.0788 81.1591 75.4441 80.9967 74.9105 80.6719C74.3802 80.3438 73.9709 79.8864 73.6825 79.2997C73.3975 78.7098 73.255 78.0237 73.255 77.2415C73.255 76.4593 73.3975 75.7699 73.6825 75.1733C73.9709 74.5734 74.3719 74.1061 74.8857 73.7713C75.4027 73.4332 76.0059 73.2642 76.6953 73.2642C77.093 73.2642 77.4858 73.3305 77.8736 73.4631C78.2614 73.5956 78.6143 73.8111 78.9325 74.1094C79.2507 74.4044 79.5043 74.7955 79.6932 75.2827C79.8821 75.7699 79.9766 76.3698 79.9766 77.0824V77.5795H74.0902V76.5653H78.7834C78.7834 76.1345 78.6972 75.75 78.5249 75.4119C78.3558 75.0739 78.1139 74.8071 77.799 74.6115C77.4875 74.416 77.1196 74.3182 76.6953 74.3182C76.228 74.3182 75.8236 74.4342 75.4822 74.6662C75.1442 74.8949 74.884 75.1932 74.7017 75.5611C74.5194 75.929 74.4283 76.3234 74.4283 76.7443V77.4205C74.4283 77.9972 74.5277 78.486 74.7266 78.8871C74.9287 79.2848 75.2088 79.5881 75.5668 79.7969C75.9247 80.0024 76.3407 80.1051 76.8146 80.1051C77.1229 80.1051 77.4013 80.062 77.6499 79.9759C77.9018 79.8864 78.1188 79.7538 78.3011 79.5781C78.4834 79.3991 78.6243 79.1771 78.7237 78.9119L79.8572 79.2301C79.7379 79.6146 79.5374 79.9527 79.2557 80.2443C78.974 80.5327 78.6259 80.758 78.2116 80.9205C77.7973 81.0795 77.3317 81.1591 76.8146 81.1591ZM87.1705 75.0739L86.1165 75.3722C86.0502 75.1965 85.9524 75.0258 85.8232 74.8601C85.6972 74.6911 85.5249 74.5518 85.3061 74.4425C85.0874 74.3331 84.8073 74.2784 84.4659 74.2784C83.9986 74.2784 83.6091 74.3861 83.2976 74.6016C82.9893 74.8137 82.8352 75.0838 82.8352 75.4119C82.8352 75.7036 82.9413 75.9339 83.1534 76.103C83.3655 76.272 83.697 76.4129 84.1477 76.5256L85.2812 76.804C85.964 76.9697 86.4728 77.2232 86.8075 77.5646C87.1423 77.9027 87.3097 78.3385 87.3097 78.8722C87.3097 79.3097 87.1837 79.7008 86.9318 80.0455C86.6832 80.3902 86.3352 80.6619 85.8878 80.8608C85.4403 81.0597 84.92 81.1591 84.3267 81.1591C83.5478 81.1591 82.9032 80.9901 82.3928 80.652C81.8823 80.3139 81.5592 79.8201 81.4233 79.1705L82.5369 78.892C82.643 79.303 82.8435 79.6113 83.1385 79.8168C83.4368 80.0223 83.8262 80.125 84.3068 80.125C84.8537 80.125 85.2879 80.009 85.6094 79.777C85.9342 79.5417 86.0966 79.2599 86.0966 78.9318C86.0966 78.6667 86.0038 78.4446 85.8182 78.2656C85.6326 78.0833 85.3475 77.9474 84.9631 77.858L83.6903 77.5597C82.991 77.3939 82.4773 77.1371 82.1491 76.7891C81.8243 76.4377 81.6619 75.9986 81.6619 75.4716C81.6619 75.0407 81.7829 74.6596 82.0249 74.3281C82.2701 73.9967 82.6032 73.7365 83.0241 73.5476C83.4484 73.3587 83.929 73.2642 84.4659 73.2642C85.2216 73.2642 85.8149 73.4299 86.2457 73.7614C86.6799 74.0928 86.9882 74.5303 87.1705 75.0739ZM92.3968 73.3636V74.358H88.4395V73.3636H92.3968ZM89.5929 71.5341H90.7662V78.8125C90.7662 79.1439 90.8142 79.3925 90.9103 79.5582C91.0098 79.7206 91.1357 79.83 91.2882 79.8864C91.444 79.9394 91.608 79.9659 91.7804 79.9659C91.9096 79.9659 92.0157 79.9593 92.0985 79.946C92.1814 79.9295 92.2477 79.9162 92.2974 79.9062L92.536 80.9602C92.4565 80.9901 92.3455 81.0199 92.2029 81.0497C92.0604 81.0829 91.8798 81.0994 91.661 81.0994C91.3296 81.0994 91.0048 81.0282 90.6866 80.8857C90.3717 80.7431 90.1099 80.526 89.9011 80.2344C89.6956 79.9427 89.5929 79.5748 89.5929 79.1307V71.5341ZM103.827 73.3636C103.767 72.8598 103.525 72.4688 103.101 72.1903C102.676 71.9119 102.156 71.7727 101.54 71.7727C101.089 71.7727 100.694 71.8456 100.356 71.9915C100.022 72.1373 99.7598 72.3378 99.5708 72.593C99.3852 72.8482 99.2924 73.1383 99.2924 73.4631C99.2924 73.7348 99.3571 73.9685 99.4863 74.1641C99.6189 74.3563 99.7879 74.517 99.9934 74.6463C100.199 74.7723 100.414 74.8767 100.64 74.9595C100.865 75.0391 101.072 75.1037 101.261 75.1534L102.295 75.4318C102.56 75.5014 102.855 75.5975 103.18 75.7202C103.508 75.8428 103.822 76.0102 104.12 76.2223C104.421 76.4311 104.67 76.6996 104.866 77.0277C105.061 77.3558 105.159 77.7585 105.159 78.2358C105.159 78.786 105.015 79.2831 104.726 79.7273C104.441 80.1714 104.024 80.5244 103.474 80.7862C102.927 81.0481 102.262 81.179 101.48 81.179C100.751 81.179 100.119 81.0613 99.5858 80.826C99.0555 80.5907 98.6378 80.2625 98.3329 79.8416C98.0313 79.4207 97.8606 78.9318 97.8208 78.375H99.0936C99.1267 78.7595 99.256 79.0777 99.4814 79.3295C99.71 79.5781 99.9984 79.7637 100.346 79.8864C100.698 80.0057 101.076 80.0653 101.48 80.0653C101.951 80.0653 102.373 79.9891 102.748 79.8366C103.122 79.6809 103.419 79.4654 103.638 79.1903C103.856 78.9119 103.966 78.5871 103.966 78.2159C103.966 77.8778 103.871 77.6027 103.682 77.3906C103.493 77.1785 103.245 77.0062 102.937 76.8736C102.628 76.741 102.295 76.625 101.937 76.5256L100.684 76.1676C99.889 75.9389 99.2593 75.6125 98.7953 75.1882C98.3313 74.764 98.0993 74.2088 98.0993 73.5227C98.0993 72.9527 98.2534 72.4555 98.5616 72.0312C98.8732 71.6037 99.2908 71.2723 99.8145 71.0369C100.341 70.7983 100.93 70.679 101.579 70.679C102.236 70.679 102.819 70.7966 103.329 71.032C103.84 71.264 104.244 71.5821 104.542 71.9865C104.844 72.3909 105.003 72.8499 105.02 73.3636H103.827ZM107.027 83.8636V73.3636H108.161V74.5767H108.3C108.386 74.4441 108.505 74.2751 108.658 74.0696C108.813 73.8608 109.036 73.6752 109.324 73.5128C109.616 73.3471 110.01 73.2642 110.507 73.2642C111.15 73.2642 111.717 73.425 112.207 73.7464C112.698 74.0679 113.081 74.5237 113.356 75.1136C113.631 75.7036 113.768 76.3996 113.768 77.2017C113.768 78.0104 113.631 78.7114 113.356 79.3047C113.081 79.8946 112.7 80.352 112.212 80.6768C111.725 80.9983 111.163 81.1591 110.527 81.1591C110.036 81.1591 109.644 81.0779 109.349 80.9155C109.054 80.7498 108.827 80.5625 108.668 80.3537C108.509 80.1416 108.386 79.9659 108.3 79.8267H108.2V83.8636H107.027ZM108.18 77.1818C108.18 77.7585 108.265 78.2673 108.434 78.7081C108.603 79.1456 108.85 79.4886 109.175 79.7372C109.5 79.9825 109.897 80.1051 110.368 80.1051C110.858 80.1051 111.268 79.9759 111.596 79.7173C111.927 79.4555 112.176 79.1042 112.342 78.6634C112.511 78.2192 112.595 77.7254 112.595 77.1818C112.595 76.6449 112.512 76.161 112.347 75.7301C112.184 75.2959 111.937 74.9529 111.606 74.701C111.278 74.4458 110.865 74.3182 110.368 74.3182C109.891 74.3182 109.49 74.4392 109.165 74.6811C108.84 74.9197 108.595 75.2545 108.429 75.6854C108.263 76.1129 108.18 76.6117 108.18 77.1818ZM118.76 81.1591C118.024 81.1591 117.389 80.9967 116.856 80.6719C116.326 80.3438 115.916 79.8864 115.628 79.2997C115.343 78.7098 115.2 78.0237 115.2 77.2415C115.2 76.4593 115.343 75.7699 115.628 75.1733C115.916 74.5734 116.317 74.1061 116.831 73.7713C117.348 73.4332 117.951 73.2642 118.641 73.2642C119.038 73.2642 119.431 73.3305 119.819 73.4631C120.207 73.5956 120.56 73.8111 120.878 74.1094C121.196 74.4044 121.45 74.7955 121.638 75.2827C121.827 75.7699 121.922 76.3698 121.922 77.0824V77.5795H116.036V76.5653H120.729C120.729 76.1345 120.643 75.75 120.47 75.4119C120.301 75.0739 120.059 74.8071 119.744 74.6115C119.433 74.416 119.065 74.3182 118.641 74.3182C118.173 74.3182 117.769 74.4342 117.428 74.6662C117.089 74.8949 116.829 75.1932 116.647 75.5611C116.465 75.929 116.374 76.3234 116.374 76.7443V77.4205C116.374 77.9972 116.473 78.486 116.672 78.8871C116.874 79.2848 117.154 79.5881 117.512 79.7969C117.87 80.0024 118.286 80.1051 118.76 80.1051C119.068 80.1051 119.347 80.062 119.595 79.9759C119.847 79.8864 120.064 79.7538 120.246 79.5781C120.429 79.3991 120.57 79.1771 120.669 78.9119L121.803 79.2301C121.683 79.6146 121.483 79.9527 121.201 80.2443C120.919 80.5327 120.571 80.758 120.157 80.9205C119.743 81.0795 119.277 81.1591 118.76 81.1591ZM125.954 81.179C125.47 81.179 125.031 81.0878 124.636 80.9055C124.242 80.7199 123.929 80.4531 123.697 80.1051C123.465 79.7538 123.349 79.3295 123.349 78.8324C123.349 78.3949 123.435 78.0402 123.607 77.7685C123.78 77.4934 124.01 77.2779 124.298 77.1222C124.587 76.9664 124.905 76.8504 125.253 76.7741C125.604 76.6946 125.957 76.6316 126.312 76.5852C126.776 76.5256 127.152 76.4808 127.44 76.451C127.732 76.4179 127.944 76.3632 128.077 76.2869C128.213 76.2107 128.281 76.0781 128.281 75.8892V75.8494C128.281 75.3589 128.146 74.9777 127.878 74.706C127.613 74.4342 127.21 74.2983 126.67 74.2983C126.11 74.2983 125.67 74.4209 125.352 74.6662C125.034 74.9115 124.81 75.1733 124.681 75.4517L123.567 75.054C123.766 74.59 124.031 74.2287 124.363 73.9702C124.698 73.7083 125.062 73.526 125.457 73.4233C125.854 73.3172 126.246 73.2642 126.63 73.2642C126.875 73.2642 127.157 73.294 127.475 73.3537C127.797 73.41 128.107 73.5277 128.405 73.7067C128.706 73.8857 128.957 74.1558 129.156 74.517C129.354 74.8783 129.454 75.3622 129.454 75.9688V81H128.281V79.9659H128.221C128.141 80.1316 128.009 80.3089 127.823 80.4979C127.638 80.6868 127.391 80.8475 127.082 80.9801C126.774 81.1127 126.398 81.179 125.954 81.179ZM126.133 80.125C126.597 80.125 126.988 80.0339 127.306 79.8516C127.628 79.6693 127.87 79.4339 128.032 79.1456C128.198 78.8572 128.281 78.554 128.281 78.2358V77.1619C128.231 77.2216 128.121 77.2763 127.952 77.326C127.787 77.3724 127.594 77.4138 127.376 77.4503C127.16 77.4834 126.95 77.5133 126.744 77.5398C126.542 77.563 126.378 77.5829 126.252 77.5994C125.947 77.6392 125.662 77.7038 125.397 77.7933C125.135 77.8795 124.923 78.0104 124.761 78.1861C124.602 78.3584 124.522 78.5937 124.522 78.892C124.522 79.2997 124.673 79.608 124.974 79.8168C125.279 80.0223 125.665 80.125 126.133 80.125ZM132.689 78.2159L132.669 76.7642H132.908L136.249 73.3636H137.7L134.141 76.9631H134.041L132.689 78.2159ZM131.595 81V70.8182H132.769V81H131.595ZM136.448 81L133.465 77.2216L134.3 76.4062L137.939 81H136.448ZM142.098 81.1591C141.362 81.1591 140.727 80.9967 140.194 80.6719C139.663 80.3438 139.254 79.8864 138.966 79.2997C138.681 78.7098 138.538 78.0237 138.538 77.2415C138.538 76.4593 138.681 75.7699 138.966 75.1733C139.254 74.5734 139.655 74.1061 140.169 73.7713C140.686 73.4332 141.289 73.2642 141.979 73.2642C142.376 73.2642 142.769 73.3305 143.157 73.4631C143.545 73.5956 143.898 73.8111 144.216 74.1094C144.534 74.4044 144.787 74.7955 144.976 75.2827C145.165 75.7699 145.26 76.3698 145.26 77.0824V77.5795H139.373V76.5653H144.067C144.067 76.1345 143.98 75.75 143.808 75.4119C143.639 75.0739 143.397 74.8071 143.082 74.6115C142.771 74.416 142.403 74.3182 141.979 74.3182C141.511 74.3182 141.107 74.4342 140.765 74.6662C140.427 74.8949 140.167 75.1932 139.985 75.5611C139.803 75.929 139.711 76.3234 139.711 76.7443V77.4205C139.711 77.9972 139.811 78.486 140.01 78.8871C140.212 79.2848 140.492 79.5881 140.85 79.7969C141.208 80.0024 141.624 80.1051 142.098 80.1051C142.406 80.1051 142.684 80.062 142.933 79.9759C143.185 79.8864 143.402 79.7538 143.584 79.5781C143.767 79.3991 143.907 79.1771 144.007 78.9119L145.14 79.2301C145.021 79.6146 144.821 79.9527 144.539 80.2443C144.257 80.5327 143.909 80.758 143.495 80.9205C143.081 81.0795 142.615 81.1591 142.098 81.1591ZM147.045 81V73.3636H148.178V74.517H148.258C148.397 74.1392 148.649 73.8326 149.013 73.5973C149.378 73.362 149.789 73.2443 150.246 73.2443C150.332 73.2443 150.44 73.246 150.569 73.2493C150.699 73.2526 150.796 73.2576 150.863 73.2642V74.4574C150.823 74.4474 150.732 74.4325 150.589 74.4126C150.45 74.3894 150.303 74.3778 150.147 74.3778C149.776 74.3778 149.444 74.4557 149.153 74.6115C148.864 74.764 148.635 74.9761 148.466 75.2479C148.301 75.5163 148.218 75.8229 148.218 76.1676V81H147.045Z" fill="black"/>
<mask id="path-15-inside-5_563_900" fill="white">
<path d="M180 56H276.667V96H180V56Z"/>
</mask>
<path d="M181 96V56H179V96H181Z" fill="#E2E8F0" mask="url(#path-15-inside-5_563_900)"/>
<path d="M244.467 70.8182V81H243.234V72.1108H243.174L240.688 73.7614V72.5085L243.234 70.8182H244.467Z" fill="black"/>
<mask id="path-18-inside-6_563_900" fill="white">
<path d="M306.667 56H403.333V96H306.667V56Z"/>
</mask>
<path d="M307.667 96V56H305.667V96H307.667Z" fill="#E2E8F0" mask="url(#path-18-inside-6_563_900)"/>
<path d="M371.134 70.8182V81H369.901V72.1108H369.841L367.355 73.7614V72.5085L369.901 70.8182H371.134Z" fill="black"/>
<mask id="path-21-inside-7_563_900" fill="white">
<path d="M433.333 56H530V96H433.333V56Z"/>
</mask>
<path d="M434.333 96V56H432.333V96H434.333Z" fill="#E2E8F0" mask="url(#path-21-inside-7_563_900)"/>
<path d="M483.422 70.8182V81H481.269V72.8615H481.209L478.878 74.3232V72.4141L481.398 70.8182H483.422Z" fill="#3182CE"/>
<path d="M30 96H530V131C530 133.761 527.761 136 525 136H35C32.2386 136 30 133.761 30 131V96Z" fill="white"/>
<path d="M54.4972 112.593V110.818H62.8594V112.593H59.7422V121H57.6143V112.593H54.4972ZM66.5396 121.149C65.7673 121.149 65.0995 120.985 64.536 120.657C63.9759 120.326 63.5434 119.865 63.2385 119.275C62.9335 118.682 62.7811 117.994 62.7811 117.212C62.7811 116.423 62.9335 115.733 63.2385 115.143C63.5434 114.55 63.9759 114.089 64.536 113.761C65.0995 113.43 65.7673 113.264 66.5396 113.264C67.3118 113.264 67.978 113.43 68.5382 113.761C69.1016 114.089 69.5358 114.55 69.8407 115.143C70.1457 115.733 70.2981 116.423 70.2981 117.212C70.2981 117.994 70.1457 118.682 69.8407 119.275C69.5358 119.865 69.1016 120.326 68.5382 120.657C67.978 120.985 67.3118 121.149 66.5396 121.149ZM66.5495 119.509C66.9009 119.509 67.1942 119.409 67.4295 119.21C67.6648 119.008 67.8422 118.733 67.9615 118.385C68.0841 118.037 68.1454 117.641 68.1454 117.197C68.1454 116.753 68.0841 116.357 67.9615 116.009C67.8422 115.661 67.6648 115.385 67.4295 115.183C67.1942 114.981 66.9009 114.88 66.5495 114.88C66.1949 114.88 65.8966 114.981 65.6547 115.183C65.416 115.385 65.2354 115.661 65.1127 116.009C64.9934 116.357 64.9338 116.753 64.9338 117.197C64.9338 117.641 64.9934 118.037 65.1127 118.385C65.2354 118.733 65.416 119.008 65.6547 119.21C65.8966 119.409 66.1949 119.509 66.5495 119.509ZM75.737 113.364V114.955H71.1383V113.364H75.737ZM72.1824 111.534H74.3002V118.653C74.3002 118.849 74.3301 119.001 74.3897 119.111C74.4494 119.217 74.5323 119.291 74.6383 119.335C74.7477 119.378 74.8736 119.399 75.0162 119.399C75.1156 119.399 75.215 119.391 75.3145 119.374C75.4139 119.354 75.4901 119.339 75.5431 119.33L75.8762 120.906C75.7702 120.939 75.621 120.977 75.4288 121.02C75.2366 121.066 75.0029 121.094 74.7278 121.104C74.2174 121.124 73.7699 121.056 73.3855 120.901C73.0043 120.745 72.7077 120.503 72.4956 120.175C72.2834 119.847 72.179 119.432 72.1824 118.932V111.534ZM79.2942 121.144C78.807 121.144 78.3728 121.06 77.9917 120.891C77.6105 120.718 77.3089 120.465 77.0868 120.13C76.8681 119.792 76.7587 119.371 76.7587 118.867C76.7587 118.443 76.8366 118.087 76.9924 117.798C77.1481 117.51 77.3603 117.278 77.6287 117.102C77.8972 116.927 78.2021 116.794 78.5435 116.705C78.8882 116.615 79.2495 116.552 79.6273 116.516C80.0714 116.469 80.4294 116.426 80.7012 116.386C80.973 116.343 81.1702 116.28 81.2928 116.197C81.4154 116.115 81.4767 115.992 81.4767 115.83V115.8C81.4767 115.485 81.3773 115.241 81.1784 115.069C80.9829 114.897 80.7045 114.81 80.3432 114.81C79.9621 114.81 79.6588 114.895 79.4334 115.064C79.208 115.23 79.0589 115.438 78.986 115.69L77.0272 115.531C77.1266 115.067 77.3221 114.666 77.6138 114.328C77.9055 113.987 78.2817 113.725 78.7424 113.543C79.2064 113.357 79.7433 113.264 80.3532 113.264C80.7774 113.264 81.1834 113.314 81.5712 113.413C81.9623 113.513 82.3087 113.667 82.6103 113.876C82.9152 114.085 83.1555 114.353 83.3311 114.681C83.5068 115.006 83.5946 115.395 83.5946 115.849V121H81.5861V119.941H81.5265C81.4038 120.18 81.2398 120.39 81.0343 120.572C80.8288 120.751 80.5819 120.892 80.2935 120.995C80.0051 121.094 79.6721 121.144 79.2942 121.144ZM79.9007 119.683C80.2123 119.683 80.4874 119.621 80.726 119.499C80.9647 119.373 81.1519 119.204 81.2878 118.991C81.4237 118.779 81.4917 118.539 81.4917 118.271V117.46C81.4254 117.503 81.3342 117.543 81.2182 117.58C81.1055 117.613 80.9779 117.644 80.8354 117.674C80.6929 117.701 80.5504 117.725 80.4078 117.749C80.2653 117.768 80.1361 117.787 80.0201 117.803C79.7715 117.84 79.5544 117.898 79.3688 117.977C79.1832 118.057 79.039 118.165 78.9363 118.3C78.8335 118.433 78.7821 118.599 78.7821 118.798C78.7821 119.086 78.8865 119.306 79.0953 119.459C79.3075 119.608 79.5759 119.683 79.9007 119.683ZM87.3556 110.818V121H85.2377V110.818H87.3556Z" fill="black"/>
<mask id="path-26-inside-8_563_900" fill="white">
<path d="M180 96H276.667V136H180V96Z"/>
</mask>
<path d="M181 136V96H179V136H181Z" fill="#E2E8F0" mask="url(#path-26-inside-8_563_900)"/>
<path d="M245.088 110.818V121H242.936V112.862H242.876L240.544 114.323V112.414L243.065 110.818H245.088Z" fill="#3182CE"/>
<mask id="path-29-inside-9_563_900" fill="white">
<path d="M306.667 96H403.333V136H306.667V96Z"/>
</mask>
<path d="M307.667 136V96H305.667V136H307.667Z" fill="#E2E8F0" mask="url(#path-29-inside-9_563_900)"/>
<path d="M371.755 110.818V121H369.602V112.862H369.543L367.211 114.323V112.414L369.732 110.818H371.755Z" fill="#3182CE"/>
<mask id="path-32-inside-10_563_900" fill="white">
<path d="M433.333 96H530V136H433.333V96Z"/>
</mask>
<path d="M434.333 136V96H432.333V136H434.333Z" fill="#E2E8F0" mask="url(#path-32-inside-10_563_900)"/>
<path d="M483.422 110.818V121H481.269V112.862H481.209L478.878 114.323V112.414L481.398 110.818H483.422Z" fill="#3182CE"/>
</g>
<defs>
<clipPath id="clip0_563_900">
<rect width="500" height="120" fill="white" transform="translate(30 16)"/>
</clipPath>
</defs>
</svg>
